<svg width="84" height="84" viewBox="0 0 84 84" fill="none" xmlns="http://www.w3.org/2000/svg">
<path d="M51.3175 38.0301L57.4129 27.687L73.8427 53.2766L73.8504 58.1877L73.7968 24.3939C73.7579 23.5676 73.3192 22.8117 72.6195 22.3658L43.0397 5.35175C42.3482 5.01161 41.4703 5.0157 40.7798 5.36247C40.6863 5.40946 40.599 5.46002 40.5152 5.51569L40.4121 5.58055L11.7 22.2188L11.5886 22.2698C11.4451 22.3352 11.3006 22.4195 11.1642 22.5165C10.6198 22.9067 10.2582 23.4843 10.1412 24.1314C10.1239 24.2295 10.1106 24.3296 10.105 24.4307L10.1499 51.9692L25.4536 28.2498C27.38 25.1048 31.5782 24.0911 35.4755 24.1467L40.0489 24.2673L13.0998 67.4859L16.2765 69.3147L43.5484 24.3112L55.6029 24.2673L28.4015 70.4067L39.7369 76.927L41.0913 77.7053C41.6644 77.9382 42.3395 77.95 42.9171 77.7411L72.9127 60.3583L67.1778 63.6815L51.3175 38.0301ZM53.6428 71.5256L42.194 53.556L49.1832 41.6961L64.2192 65.396L53.6428 71.5256Z" fill="#2D374B"/>
<path d="M42.1899 53.5565L53.6392 71.5257L64.2152 65.3966L49.1791 41.6965L42.1899 53.5565Z" fill="#28A0F0"/>
<path d="M73.8488 58.1881L73.8412 53.2771L57.4113 27.6875L51.3159 38.0306L67.1768 63.6819L72.9116 60.3587C73.474 59.9021 73.8146 59.2315 73.8504 58.5084L73.8488 58.1881Z" fill="#28A0F0"/>
<path d="M5 62.8193L13.0985 67.4857L40.0476 24.2672L35.4741 24.1466C31.5773 24.0915 27.3792 25.1048 25.4522 28.2498L10.1486 51.9691L5 59.8796V62.8193V62.8193Z" fill="white"/>
<path d="M55.6013 24.2672L43.5468 24.3111L16.2749 69.3146L25.8075 74.8028L28.3994 70.4066L55.6013 24.2672Z" fill="white"/>
<path d="M78.9286 24.205C78.8279 21.6841 77.4628 19.3767 75.3249 18.033L45.3575 0.799275C43.2426 -0.265574 40.6007 -0.267106 38.4817 0.798765C38.2314 0.924912 9.33906 17.6816 9.33906 17.6816C8.93917 17.8731 8.55409 18.1014 8.19199 18.3609C6.28344 19.7291 5.12002 21.8547 5 24.1897V59.8803L10.1486 51.9697L10.1036 24.4308C10.1097 24.3301 10.1225 24.2306 10.1399 24.133C10.2563 23.4849 10.6184 22.9073 11.1628 22.5166C11.2992 22.4195 40.6844 5.40954 40.7779 5.36255C41.4689 5.01577 42.3463 5.01169 43.0378 5.35182L72.6176 22.3659C73.3173 22.8118 73.756 23.5676 73.7948 24.394V58.5075C73.7591 59.2306 73.4731 59.9012 72.9108 60.3578L67.1759 63.681L64.2168 65.396L53.6408 71.5252L42.9152 77.7406C42.3376 77.9495 41.6619 77.9378 41.0894 77.7049L28.3996 70.4062L25.8072 74.8024L37.2115 81.3683C37.5884 81.5828 37.9245 81.7727 38.2003 81.928C38.6272 82.1675 38.9184 82.3274 39.021 82.3774C39.8315 82.7712 40.9975 83 42.0485 83C43.0118 83 43.9515 82.8233 44.8406 82.475L75.994 64.4338C77.782 63.0483 78.8341 60.9589 78.9286 58.6959V24.205Z" fill="#96BEDC"/>
</svg>
